<?xml version="1.0" encoding="utf-8"?>
<!-- Generator: Adobe Illustrator 19.0.0, SVG Export Plug-In . SVG Version: 6.00 Build 0)  -->
<svg version="1.1" xmlns="http://www.w3.org/2000/svg" xmlns:xlink="http://www.w3.org/1999/xlink" x="0px" y="0px"
	 viewBox="0 0 1915.9 568.2" style="enable-background:new 0 0 1915.9 568.2;" xml:space="preserve">
<style type="text/css">
	.st0{display:none;}
	.st1{display:inline;fill:#FFFFFF;}
	.st2{display:inline;fill:none;stroke:#000000;stroke-width:60;stroke-miterlimit:10;}
	.st3{display:inline;fill:none;}
	.st4{display:inline;}
	.st5{fill:none;stroke:#000000;stroke-width:60;stroke-miterlimit:10;}
	.st6{fill:#FFFFFF;}
	.st7{fill:#7E1416;}
	.st8{font-family:'ISL_FADETOBLAK';}
	.st9{font-size:120px;}
	.st10{font-size:489.9022px;}
	.st11{font-size:196.8849px;}
	.st12{display:inline;fill:#7E1416;}
	.st13{font-family:'BlackadderITC-Regular';}
	.st14{font-size:139.6615px;}
	.st15{font-size:398.3655px;}
</style>
<g id="Warstwa_3" class="st0">
	<rect id="XMLID_2_" x="-145.4" y="-59.4" class="st1" width="2336" height="744"/>
</g>
<g id="Warstwa_8" class="st0">
	<path id="XMLID_93_" class="st2" d="M284,568.2"/>
	<path id="XMLID_92_" class="st2" d="M6.2,568.2"/>
	<path id="XMLID_91_" class="st2" d="M6.2,0"/>
	<path id="XMLID_89_" class="st2" d="M284,0"/>
	<line id="XMLID_88_" class="st3" x1="158.1" y1="26.9" x2="158.1" y2="495.6"/>
	<path id="XMLID_87_" class="st2" d="M284.1,568.2"/>
	<path id="XMLID_86_" class="st2" d="M561.9,568.2"/>
	<path id="XMLID_85_" class="st2" d="M561.9,0"/>
	<path id="XMLID_84_" class="st2" d="M284.1,0"/>
	<polygon id="XMLID_68_" class="st4" points="375,415.6 375,540.6 350.7,540.6 350.7,415.6 284.1,415.6 284,415.6 217.4,415.6 
		217.4,540.6 193.1,540.6 193.1,415.6 150.8,415.6 150.8,567.5 284,567.5 284.1,567.5 417.3,567.5 417.3,415.6 	"/>
	<g id="XMLID_70_" class="st4">
		<path id="XMLID_161_" d="M523.1,45v478.2H45v-380C45,89,89,45,143.2,45H523.1 M568.1,0H143.2C64.1,0,0,64.1,0,143.2v425h568.1V0
			L568.1,0z"/>
	</g>
	<path id="XMLID_51_" class="st4" d="M417.3,345.9c-0.6-15.9-60-28.7-133.3-28.7c-73.6,0-133.3,12.9-133.3,28.9c0,0.1,0,0.3,0,0.4
		v42H284h0h133.3L417.3,345.9L417.3,345.9z"/>
	<path id="XMLID_171_" class="st4" d="M284.1,14.6L284.1,14.6H152.4l65.9,116.3l0,0c0-0.1,0-0.2,0-0.3c0-8.1,29.5-14.6,65.8-14.6
		c0,0,0,0,0,0c36.4,0,65.8,6.5,65.8,14.6c0,0.1,0,0.2,0,0.3h0l65.9-116.3H284.1z"/>
	<path id="XMLID_67_" class="st4" d="M284.1,247.2l50.5-89.3h0c0-6.1-22.6-11-50.5-11c-27.9,0-50.5,4.9-50.5,11L284.1,247.2
		L284.1,247.2L284.1,247.2L284.1,247.2L284.1,247.2z"/>
</g>
<g id="Warstwa_1" class="st0">
	<path id="XMLID_114_" class="st2" d="M284.1,569.2"/>
	<path id="XMLID_113_" class="st2" d="M6.3,569.2"/>
	<path id="XMLID_112_" class="st2" d="M6.3,1"/>
	<path id="XMLID_111_" class="st2" d="M284.1,1"/>
	<line id="XMLID_104_" class="st3" x1="158.2" y1="27.9" x2="158.2" y2="496.6"/>
	<path id="XMLID_102_" class="st2" d="M284.2,569.2"/>
	<path id="XMLID_101_" class="st2" d="M562,569.2"/>
	<path id="XMLID_100_" class="st2" d="M562,1"/>
	<path id="XMLID_99_" class="st2" d="M284.2,1"/>
	<g id="XMLID_5_" class="st4">
		<rect id="XMLID_110_" x="284.1" y="346.9" width="133.3" height="42.7"/>
		<polygon id="XMLID_109_" points="350.8,416.6 350.8,541.6 375.1,541.6 375.1,416.6 417.4,416.6 417.4,568.5 284.1,568.5 
			284.1,416.6 		"/>
		<g id="XMLID_106_">
			<polygon id="XMLID_108_" points="284.1,131.9 284.1,15.6 415.9,15.6 350,131.9 			"/>
			<polygon id="XMLID_107_" points="334.7,158.9 284.1,248.3 284.1,158.9 			"/>
		</g>
		<rect id="XMLID_98_" x="150.9" y="346.9" width="133.3" height="42.7"/>
		<polygon id="XMLID_97_" points="217.5,416.6 217.5,541.6 193.2,541.6 193.2,416.6 150.9,416.6 150.9,568.5 284.2,568.5 
			284.2,416.6 		"/>
		<g id="XMLID_94_">
			<polygon id="XMLID_96_" points="284.2,131.9 284.2,15.6 152.4,15.6 218.3,131.9 			"/>
			<polygon id="XMLID_95_" points="233.6,158.9 284.2,248.3 284.2,158.9 			"/>
		</g>
	</g>
	<g id="XMLID_90_" class="st4">
		<path id="XMLID_16_" d="M528.2,41v488.2H40.1V41H528.2 M568.2,1H0.1v568.2h568.1V1L568.2,1z"/>
	</g>
</g>
<g id="Warstwa_5">
	<path id="XMLID_59_" class="st5" d="M284.1,568.2"/>
	<path id="XMLID_58_" class="st5" d="M6.2,568.2"/>
	<path id="XMLID_57_" class="st5" d="M6.2,0"/>
	<path id="XMLID_56_" class="st5" d="M284.1,0"/>
	<path id="XMLID_54_" class="st5" d="M284.1,568.2"/>
	<path id="XMLID_53_" class="st5" d="M562,568.2"/>
	<path id="XMLID_52_" class="st5" d="M562,0"/>
	<path id="XMLID_20_" class="st5" d="M284.1,0"/>
	<polygon id="XMLID_10_" class="st6" points="375.1,415.6 375.1,540.6 350.8,540.6 350.8,415.6 284.2,415.6 284.1,415.6 
		217.5,415.6 217.5,540.6 193.2,540.6 193.2,415.6 150.8,415.6 150.8,567.5 284.1,567.5 284.2,567.5 417.4,567.5 417.4,415.6 	"/>
	<g id="XMLID_3_">
		<path id="XMLID_72_" class="st6" d="M523.2,45v478.2H45.1v-380c0-54.1,44-98.2,98.2-98.2H523.2 M568.2,0H143.3
			C64.2,0,0.1,64.1,0.1,143.2v425h568.1V0L568.2,0z"/>
	</g>
	<path id="XMLID_7_" class="st6" d="M417.4,345.9c-0.6-15.9-60-28.7-133.3-28.7c-73.6,0-133.3,12.9-133.3,28.9c0,0.1,0,0.3,0,0.4v42
		h133.3h0h133.3L417.4,345.9L417.4,345.9z"/>
	<path id="XMLID_13_" class="st6" d="M284.1,4.6L284.1,4.6H141L212.5,139l0,0c0-0.1,0-0.2,0-0.3c0-9.3,32-16.9,71.5-16.9
		c0,0,0,0,0,0c39.5,0,71.5,7.6,71.5,16.9c0,0.1,0,0.2,0,0.3h0L427.2,4.6H284.1z"/>
	<path id="XMLID_69_" class="st6" d="M284.1,269.2L339,166.1h0c0-7-24.6-12.7-54.9-12.7c-30.3,0-54.9,5.7-54.9,12.7L284.1,269.2
		L284.1,269.2L284.1,269.2L284.1,269.2L284.1,269.2z"/>
</g>
<g id="Warstwa_2">
	<path id="XMLID_137_" class="st6" d="M655.1,50.9h2.4v73.5h-44.9v-31C612.6,69.9,631.6,50.9,655.1,50.9z M612.6,148.9h44.9v147
		h-44.9V148.9z"/>
	<g id="XMLID_66_">
		<path id="XMLID_152_" class="st7" d="M1376.6,99.9h179.8v20.4l0.1,4.1h44.9V50.9h-232.9c-20.3,0-36.7,16.5-36.7,36.7v0
			c0,12.2,0,24.5,0,36.7h44.9V99.9z"/>
		<path id="XMLID_153_" class="st7" d="M1331.6,222.3c0,24.5,0,49,0,73.5h44.9v-147h-44.9C1331.6,173.3,1331.6,197.8,1331.6,222.3z"
			/>
		<polygon id="XMLID_154_" class="st7" points="1510.8,148.9 1482.7,166.5 1419.6,166.5 1537.6,295.8 1601.3,295.8 1515.8,202.6 
			1601.3,148.9 		"/>
	</g>
	<path id="XMLID_149_" class="st7" d="M1688.7,50.9h227.1v49h-112.4v24.5h-44.9V99.9h-112.4v-6.5
		C1646.2,69.9,1665.3,50.9,1688.7,50.9z M1758.6,295.8v-147h44.9v147H1758.6z"/>
	<g id="XMLID_21_">
		<rect id="XMLID_76_" x="612.6" y="344.9" class="st6" width="1303.3" height="35.1"/>
	</g>
	<g id="XMLID_23_">
		<path id="XMLID_119_" class="st7" d="M1017.1,440.8v-9.7c0-11,10.7-19.8,23.8-19.8h125.6V431H1042l0,9.8H1017.1z M1017.1,490
			h124.5v-19.7h-124.5v-19.7h149.4v59.1h-149.4V490z"/>
		<path id="XMLID_122_" class="st7" d="M1215.5,411.3h125.8V431h-62.2v9.8h-24.9V431h-62.2v0
			C1191.9,420.1,1202.5,411.3,1215.5,411.3z M1254.2,509.7v-59.1h24.9v59.1H1254.2z"/>
		<path id="XMLID_125_" class="st7" d="M1391.7,440.8h-24.9v-9.7c0-11,10.7-19.8,23.8-19.8h1.1V440.8z M1366.8,509.7v-59.1h24.9V490
			h99.6v-39.4h24.9v59.1H1366.8z M1516.2,440.8h-24.9v-29.5h24.9V440.8z"/>
		<path id="XMLID_129_" class="st7" d="M1541.7,509.7v-59.1h24.9V490h99.6V431h-105.8h-18.7v0c0-10.9,10.6-19.7,23.6-19.7h113.3
			l12.4,9.8v88.6H1541.7z"/>
		<path id="XMLID_131_" class="st7" d="M1740.3,411.3h1.1v29.5h-24.9v-9.7C1716.5,420.2,1727.2,411.3,1740.3,411.3z M1716.5,450.7
			h24.9v59.1h-24.9V450.7z"/>
		<path id="XMLID_134_" class="st7" d="M1915.9,440.8H1891V431h-99.6v9.8h-24.9v-9.7c0-11,10.7-19.8,23.8-19.8h125.6V440.8z
			 M1766.5,509.7v-59.1h24.9V490h99.6v-39.4h24.9v59.1H1766.5z"/>
	</g>
	<g id="XMLID_146_">
		<g id="XMLID_147_">
			<path id="XMLID_79_" class="st6" d="M702.5,222.3c0,24.5,0,73.5,0,73.5c0,0,0,0,0,0h44.9c0,0,0,0,0,0V148.9c0,0,0,0,0,0h-44.9
				c0,0,0,0,0,0C702.5,148.9,702.5,197.8,702.5,222.3z"/>
		</g>
		<g id="XMLID_148_">
			<path id="XMLID_77_" class="st6" d="M747.4,99.9C747.4,99.9,747.4,99.9,747.4,99.9l179.7,0c0,0,0,0,0,0v20.4c0,0,0,0,0,0l0,4.1
				c0,0,0,0,0,0h44.9c0,0,0,0,0,0V50.9c0,0,0,0,0,0H739.2c-20.3,0-36.7,16.5-36.7,36.7v0c0,12.2,0,36.7,0,36.7c0,0,0,0,0,0h44.9
				c0,0,0,0,0,0V99.9z"/>
		</g>
		<g id="XMLID_155_">
			<path id="XMLID_71_" class="st6" d="M881.7,148.9C881.7,148.9,881.7,148.9,881.7,148.9l-28.2,17.7c0,0,0,0,0,0h-63c0,0,0,0,0,0
				l118,129.3c0,0,0,0,0,0h63.6c0,0,0,0,0,0l-85.5-93.2c0,0,0,0,0,0l85.5-53.7c0,0,0,0,0,0H881.7z"/>
		</g>
	</g>
	<g id="XMLID_143_">
		<path id="XMLID_144_" class="st7" d="M1209.9,124.4l-22.8-50.7c-6.2-13.8-20-22.7-35.2-22.7l0,0c-15.2,0-29,8.9-35.2,22.8
			l-22.7,50.7h21.6h28.4h16.1h11.6H1209.9z"/>
		<polygon id="XMLID_156_" class="st7" points="1017.1,295.8 1067,295.8 1132.9,148.9 1083,148.9 		"/>
		<polygon id="XMLID_157_" class="st7" points="1220.5,148.9 1209.9,148.9 1170.6,148.9 1236.8,295.8 1286.7,295.8 		"/>
	</g>
</g>
<g id="Warstwa_7" class="st0">
	<text id="XMLID_1_" transform="matrix(1 0 0 1 677.4791 495.6165)" class="st4 st8 st9">1972</text>
</g>
<g id="Warstwa_6" class="st0">
	<text id="XMLID_64_" transform="matrix(0.9173 0 0 1 612.6 295.8219)" class="st4"><tspan x="0" y="0" class="st8 st10">IR</tspan><tspan x="440.9" y="0" class="st7 st8 st10">ART</tspan></text>
	<rect id="XMLID_62_" x="612.6" y="344.9" class="st4" width="1242.1" height="35.1"/>
	<text transform="matrix(1.0574 0 0 1 936.6208 509.7358)" class="st4 st8 st11"> </text>
	<text transform="matrix(1.0539 0 0 1 1061.5354 509.7358)" class="st12 st8 st11">STUDIO</text>
	<text id="XMLID_14_" transform="matrix(0.7297 -0.185 0.2458 0.9693 649.5716 549.4254)" class="st4 st13 st14">Since 1968</text>
	<text id="XMLID_8_" transform="matrix(1.0962 0 0 1 1839.1311 715.7838)" class="st4 st13 st15">©</text>
</g>
<g id="Warstwa_4" class="st0">
	<g id="XMLID_22_" class="st4">
		<path id="XMLID_24_" d="M1042,405.8l-9,3.4l-9.5,2.4h-30.4l-27.9,1.9l-24.4,3.7l-17.5,2.9l-15,2.9l-12.5,4.6l-5,5.8l1,5.6l2,8
			l-2,2.9l-5,1.9h-4.5l-5-1.9l-5-4.6l-10-0.5l-13.5,2.2l-7,3.4l-9.5,3.9l-14.5,3.2l-18,2.4h-14.5l-13.5-2.4l-14-4.6l-4.5-5.8
			l-11-4.1l-8-4.9l-1.5-10.5l6.5-9l13-7.1l13.5-5.4l19.5-8.5l23.4-4.6h21.4l11.5-1l10-4.4l6-0.5l4.5-4.1l-4.5-11l-1-6.8l-4-9l1-11.9
			l-1-7.5l3-8l-3-9.5l-1-9v-6.8l-4-15.6v-44.3l-6-4.4l10-6.6l-5-18.5v-25.3l-4-8l5-9l-13.5,0.5l-15,1.5h-12.5l-40.9,3.7h-11.5
			l-10,2.4l-20.5,1.5h-16.5l-16-2.9l-8.5-3.2l-5-5.4l3-7.1l7-4.4l14.5-2.4l17.5,1.9l15.5,2.9h12l20.5,1.5h27.4l27.9,0.5H845V157
			l4-5.1l-1-3.4l1-4.1l-6-7.3v-8.5l6-4.6l-4-8.3l11-5.1l16.5-1.9l14.5-1l14,1l3.5,8l2,6.8l3,5.6l-1,7.1l1,6.8l-8.5,6.6l-1,4.9
			l4.5,3.7l10,0.5h19.5l18.5,1.9h26.4l15.5,1h15l4.5,1.5v2.4l-11.5,1.7l-23.4-1.2l-17.5,1.2h-20.5l-21.4,1.5l-15,1.5l-12.5,3.9v8
			l-1,10.5l-4,10.5l2,8.5l-4,6.3l6,8l-5,11.4v8.5l-1,14.1l-5.5,6.8l3,5.1v11l-3,9.5l3,10.5l-2,13.4v33.3l-3,10.5l2,11.4l3,11.9
			l17.5,2.2l15.5,0.5l17.5,1.9l19.5,4.4l15,0.5l25.9,2.7l18.5,4.4l11-1l13.5,1l6,1.9V405.8z M1063.5,386.3l-7,2.4l-7.5-5.1l6.5-3.4
			l8,2.4V386.3z"/>
		<path id="XMLID_27_" d="M1538.8,473l-3,1h-7.5l-8-1.9l-10.5-2.9l-26.4-9.5l-18.5-8l-19.5-11.9l-15-10l-12.5-10.5l-15.5-8
			l-21.4-12.9l-24.4-11.4l-22.4-10l-17.5-11l-25.4-14.6l-18.5-13.4l-19.5-11.9l-18.5-11l-21.4-9l-23.4-6.6h-22.4l-1,7.1l-7,11.4
			l-6,18l-1,11l-5.5,9.5l-7,25.3l-2,14.6v9l-3,20.4v4.9l5,3.9l8,4.6l4.5,6.3l-2.5,3.7l-5,3.4l-9,1.9l-9.5-1l-7-2.9l-5-3.9l-12.5-10
			l-2-12.2v-14.8l2-23.4l5-9.5l2.5-6.1v-11.9l3-7.1l3-7.3l1-8l5-10.5l2-11.4l5-12.4l1.5-13.1l5-8.3l1-9.5v-11.4l3-11.7l1-12.4
			l10-25.8l3.5-9.5v-9.5l1-13.4l7-9l6-8.5l-4-8.5l4-9l-8-9.5l3-7.8l8-7.1l21.4-1l21.4-7.1l20.5-1.5l28.9-0.5l30.4,0.5l33.9,1.5
			l16.5,3.4l14,2.7l14.5,5.4l16.5,7.5l10,9l10.5,9.5l9,12.4v8l9,9.5l-1,11l2.5,5.4l-2.5,11l-4,9.5l-3,11l-1,10l-4,8.5l-9.5,10.5
			l-14,8.5l-14.5,4.9l-15.5,6.1l-15,3.9l-14.5,4.6v9.5l5,7.3l6,7.5l3.5,7.1l14,16.8l21.4,17.5l9.5,8l9,10l14.5,12.9l8,8l13.5,9.5
			l7,10.5l8.5,9.5l13,10l10.5,8.3l16,9.5l19.5,9l13.5,7.1l10,6.3l4.5,3.2L1538.8,473z M1335.8,194.3l-7-10.5l5-10.5l-5-4.4v-18.5
			l-10.4-7.5L1298,140l-16.9-3.4l-8.4,1.9l-7-0.5l-31.8,5.4l-6,4.6l-4,5.8l-4,8l-4,10.5v9l-11.5,25.8l-10,12.7l-6.5,10.5l-2,11.9
			l2,5.8l-2,8l10.4,4.1l14.9,1.9l13.4-3.7l24.4-2.9l31.8-2.9l16.9-5.6l18.4-7.3l6.5-7.5l-3.5-4.6l3.5-4.9v-9l1-8.5L1335.8,194.3z
			 M1206.6,339.9l-1,3.7l-8-1.2l-1-2.4l8-3.4L1206.6,339.9z M1326.8,180.4l-8.5,2.4l-5-3.4l5-4.1l8.5,1.7V180.4z"/>
		<path id="XMLID_32_" d="M1529.8,414.1l-4.5,1l-5-1v-2.4l3-1l5.5,0.5l1,1.5V414.1z M1993.2,457.2l-4,2.4l-8,1.5l-3-2.4l-5.5-3.6
			l-7-6.8l-10-6.6l-14.5-12.4l-10.5-11.9l-4-8.5l-7-4.6l-12.5-17.3l-10-6.1l-8-9l-11.5-9l-9-3.9l-21.4-11.4l-4.5-6.6l-17-5.8
			l-21.5-1.9l-23,1.5l-23.5,1.9l-17,3.4l-18.5,8l-17.5,4.4l-4,4.1l-13.5,4.8l-28.4,8l-5.5,2.9l-4,11v7.1l-7,3.9v8.5l-3,9l3,14.6
			l-3,10l-6,10.5l-9.5,8.3l-11,6.6l-18.5,8l-17.5,1.5l-16.5,1l-5-1.9h-9.5l-7-4.1l-5-1.9v-4.9l-5-3.7v-10l5-6.3l-1-5.6l3-3.4l6-1.5
			v-4.6l9.5-2.4l4-4.4l6-6.1l8.5-1.9l8-9l3-10l5-1.5l-2-6.6l4-10v-6.3l-9-9.5l-6-8.5l-2-9.5l-1-6.6l3-1.9l-2-3.4v-1.9l15-9v-2.9
			l8.5-4.6l11-8.5l13.5-9.5l3-6.8l1-5.1l-1-3.9l5-12.4l4-11.9l8.5-15.1l2-8.5l4-3.9l-1-12.9l-2-11.4l2-11l8-9l7.5-7.1l9-3.4l3-6.6
			l6.5-4.4l3-4.1l-3-2.9l2-6.6l-7.5-7.8l2-8l-6-3.7l3-6.3h6.5l11-4.1l6-0.5l4.5-3.9l16-1l13.5,2.9l11.5,8.5l5,1.5l8,7.5l9.5,9l4,8.5
			l9,9.7l11.5,7.5l1,4.1l8,4.4l5,5.1l9.5,6.3l-1,6.1l9,9l1,3.9l5.5,4.9l5,8.5l8,7.1l3,11.9l4.5,8.5l6,11.9v4.4l5,6.6l7,11.4
			l6.5,10.5l2,8.5l5,6.1l13.5,4.4l16,2.4l19.5-0.5h18.5l18.5,1.9l3,2.7l4,2.4l-4,1.5l-3,2.4l-8,4.1l-10.5,0.5l-4,2.4l-15.5,1.5
			l-17.5,3.9l-7,3.2v5.8l3,7.1l6.5,7.1l8,6.8l7,10l5,6.1l6.5,9.5l7,8.5l10.5,10.5l7,8.8l4,13.6l5,1.5l6.5,7.1l7,6.8v4.1l5,2.4
			L1993.2,457.2z M1547.8,479.1l-1,1.9l-7-0.5l-3-3.7l5-0.5h6V479.1z M1593.2,291.7l-1,2.4l-4.5,1.5l-6-1.9v-2.4l5-2.7l5.5-1l1,1.5
			V291.7z M1806.8,299.4l-4.5-5.4l-10-9l-2-8.5l-5-3.9l-3.5-5.1l-6-4.9l1-12.9l-13-8.5l4-3.7l-5-5.8l-6.5-17.5l-8-8l-1-6.3
			l-11.5-7.1l-4-3.9l-10-10.5l-20.5,10l2,6.3l-7.5,5.6v5.8l-2,3.2l-4,10l-2,8.8v2.7l-5,3.4v7.1l-2,13.9v6.6l-5.5,5.8l3.5,6.1
			l-5.5,7.5l8.5,5.8l23.5,5.1l24.5,4.4l20.5,5.6l11.5,3.9l20,1.9l13.5-1.5l4-1.5L1806.8,299.4z M1758.3,300.4l-6,0.7l-5-1.7l1-1.9h5
			l3-1l2,1.5V300.4z M1985.3,313.6l-1,1.9l-4,1h-3V315l1-1.9l2-0.5L1985.3,313.6z M1994.2,475c-0.3,0.3-2,0.6-5,1l-3-0.5l-1-1.5
			l3-1.5l5,0.5L1994.2,475z"/>
		<path id="XMLID_41_" d="M2492,473l-3,1h-7.5l-8-1.9l-10.5-2.9l-26.4-9.5l-18.5-8l-19.5-11.9l-15-10l-12.5-10.5l-15.5-8l-21.4-12.9
			l-24.4-11.4l-22.4-10l-17.5-11l-25.4-14.6l-18.5-13.4l-19.5-11.9l-18.5-11l-21.4-9l-23.4-6.6h-22.4l-1,7.1l-7,11.4l-6,18l-1,11
			l-5.5,9.5l-7,25.3l-2,14.6v9l-3,20.4v4.9l5,3.9l8,4.6l4.5,6.3l-2.5,3.7l-5,3.4l-9,1.9l-9.5-1l-7-2.9l-5-3.9l-12.5-10l-2-12.2
			v-14.8l2-23.4l5-9.5l2.5-6.1v-11.9l3-7.1l3-7.3l1-8l5-10.5l2-11.4l5-12.4l1.5-13.1l5-8.3l1-9.5v-11.4l3-11.7l1-12.4l10-25.8
			l3.5-9.5v-9.5l1-13.4l7-9l6-8.5l-4-8.5l4-9l-8-9.5l3-7.8l8-7.1l21.4-1l21.4-7.1l20.5-1.5l28.9-0.5l30.4,0.5l33.9,1.5l16.5,3.4
			l14,2.7l14.5,5.4l16.5,7.5l10,9l10.5,9.5l9,12.4v8l9,9.5l-1,11l2.5,5.4l-2.5,11l-4,9.5l-3,11l-1,10l-4,8.5l-9.5,10.5l-14,8.5
			l-14.5,4.9l-15.5,6.1l-15,3.9l-14.5,4.6v9.5l5,7.3l6,7.5l3.5,7.1l14,16.8l21.4,17.5l9.5,8l9,10l14.5,12.9l8,8l13.5,9.5l7,10.5
			l8.5,9.5l13,10l10.5,8.3l16,9.5l19.5,9l13.5,7.1l10,6.3l4.5,3.2L2492,473z M2289,194.3l-7-10.5l5-10.5l-5-4.4v-18.5l-10.4-7.5
			l-20.4-2.9l-16.9-3.4l-8.4,1.9l-7-0.5l-31.8,5.4l-6,4.6l-4,5.8l-4,8l-4,10.5v9l-11.5,25.8l-10,12.7l-6.5,10.5l-2,11.9l2,5.8l-2,8
			l10.4,4.1l14.9,1.9l13.4-3.7l24.4-2.9l31.8-2.9l16.9-5.6l18.4-7.3l6.5-7.5l-3.5-4.6l3.5-4.9v-9l1-8.5L2289,194.3z M2159.8,339.9
			l-1,3.7l-8-1.2l-1-2.4l8-3.4L2159.8,339.9z M2280.1,180.4l-8.5,2.4l-5-3.4l5-4.1l8.5,1.7V180.4z"/>
		<path id="XMLID_46_" d="M2955.9,147.1l-9.5,1.9l-7-1l-20.5-1.5l-28.4-1.7h-32.9l-39.9,1.2l-42.9,2.9l-38.4,0.5l-33.9,3.4
			l-27.4,2.4l-29.9,4.6l-22.4,2.9l-21.4,2.4l-7,4.1l-13.5,3.9l-17.5,4.6l-20.5,2.9l-27.4,1.9l-27.4,0.5l-24.4-3.9l-14.5-4.6
			l-14.5-4.9l-13-5.6l-2-6.8l2-8l9-6.1l8.5-3.9l13-1.9l20.5-5.1l19.5-2.4l30.9-1.5h33.4l42.9,1.5h42.9l45.9-1.5l37.9-0.5l16.5-1.5
			l21.4,1l23.4-1.9l25.4,2.4l23.4-0.5l21.4,1l40.9,2.4h19.5l32.9,8l5,4.4V147.1z M2567.9,94.2l-6.5,3.9l-8-3.9l5-5.1l9.5,1.5V94.2z
			 M2693.6,187.5l-5.5,4.4l-4,10v9l-3,11.4v10l-2,8l-4,6.8l4,5.6l-7,6.3l-1.5,8.5v7.5l-4,9.5l-2,11l-2,8.5l2,10l-4,11.4l-1,11v9
			l1,11.4l2,12.4l-2,11.9v12.9l-3,11.2l2,10.5v11.4l1,10.5l-1,10.5l-7,3.4l-2-2.4l-2.5-4.6l2.5-7.8l1-9.5l-4.5-5.6l1-9.5l-3-5.4
			l-3-7.5v-24.8l-4-8v-9l-2-9.5v-11.4l-2-9.5v-10l2-10v-13.4l-2-13.6v-21.4l-1-7.8l4-7.5v-9.5l-1-11.9l-8.5-11.4l-5-10.5l-8-8l-2-8
			V177l7-5.6l12.5-6.1l16-1l12.5,2.2l14.5,5.8l11,6.6L2693.6,187.5z"/>
	</g>
</g>
</svg>
